<?xml version="1.0" encoding="utf-8"?>
<!-- Generator: Adobe Illustrator 24.1.2, SVG Export Plug-In . SVG Version: 6.00 Build 0)  -->
<svg version="1.1" id="Layer_1" xmlns="http://www.w3.org/2000/svg" xmlns:xlink="http://www.w3.org/1999/xlink" x="0px" y="0px"
	 viewBox="0 0 265.5 354" style="enable-background:new 0 0 265.5 354;" xml:space="preserve">
<style type="text/css">
	.st0{fill:none;}
</style>
<g>
	<rect x="7.8" y="71.1" class="st0" width="250" height="211.7"/>
	<g>
		<rect x="102.5" y="116.5" width="37.9" height="7.6"/>
		<path d="M163.1,120.3c0,2.1-1.7,3.8-3.8,3.8h-7.6c-2.1,0-3.8-1.7-3.8-3.8c0-2.1,1.7-3.8,3.8-3.8h7.6
			C161.4,116.5,163.1,118.2,163.1,120.3z"/>
		<rect x="102.5" y="229.9" width="37.9" height="7.6"/>
		<path d="M163.1,233.7c0,2.1-1.7,3.8-3.8,3.8h-7.6c-2.1,0-3.8-1.7-3.8-3.8c0-2.1,1.7-3.8,3.8-3.8h7.6
			C161.4,229.9,163.1,231.6,163.1,233.7z"/>
		<polygon points="105.6,214.8 140.3,214.8 140.3,207.2 115.4,207.2 		"/>
		<path d="M150.5,207.5c-1.5,0.5-2.5,1.9-2.5,3.6c0,2.1,1.7,3.8,3.8,3.8h7.6c0.2,0,0.4,0,0.6,0L150.5,207.5z"/>
		<path d="M150.4,146.5l9.4-7.3c-0.2,0-0.4,0-0.5,0h-7.6c-2.1,0-3.8,1.7-3.8,3.8C147.9,144.6,149,146,150.4,146.5z"/>
		<polygon points="115.4,146.8 140.3,146.8 140.3,139.2 105.6,139.2 		"/>
		<g>
			<polygon points="174.5,226.1 174.5,252.6 91.1,252.6 91.1,226.1 83.5,232 83.5,260.1 91.1,260.1 91.1,260.1 174.5,260.1 
				174.5,260.1 182,260.1 182,232 			"/>
			<polygon points="91.1,161.4 83.5,155.5 83.5,198.5 91.1,192.6 			"/>
			<polygon points="182,155.5 174.5,161.4 174.5,192.6 182,198.5 			"/>
			<polygon points="91.1,127.9 91.1,101.4 174.5,101.4 174.5,127.9 182,122 182,93.9 174.5,93.9 174.5,93.9 91.1,93.9 91.1,93.9 
				83.5,93.9 83.5,122 			"/>
		</g>
		<path d="M232.3,239.9L232.3,239.9L232.3,239.9L151.2,177l81.1-62.9l0,0c4.9-3.8,5.8-10.9,2-15.9c-3.9-4.9-11-5.8-16-1.9l0,0l0,0
			l-85.6,66.4L47.2,96.3h0l0,0c-4.9-3.8-12.1-3-16,1.9c-3.9,4.9-3,12,2,15.9c0,0,0,0,0,0l81.1,62.9l-81.1,62.9l0,0l0,0
			c-4.9,3.8-5.8,10.9-2,15.9c3.9,4.9,11,5.8,16,1.9l0,0l85.5-66.4l85.5,66.4c0,0,0,0,0,0c5,3.8,12.1,3,16-1.9
			C238.2,250.9,237.3,243.8,232.3,239.9z"/>
	</g>
</g>
</svg>
