<?xml version="1.0" encoding="UTF-8"?> <svg xmlns="http://www.w3.org/2000/svg" xmlns:xlink="http://www.w3.org/1999/xlink" width="70pt" height="70pt" viewBox="0 0 70 70"><g id="surface1"><path style=" stroke:none;fill-rule:evenodd;fill:rgb(95.294118%,43.921569%,12.941176%);fill-opacity:1;" d="M 34.941406 66.957031 C 52.550781 66.957031 66.957031 52.550781 66.957031 34.941406 C 66.957031 17.332031 52.550781 2.925781 34.941406 2.925781 C 17.332031 2.925781 2.925781 17.332031 2.925781 34.941406 C 2.925781 52.550781 17.332031 66.957031 34.941406 66.957031 Z M 34.941406 66.957031 "></path><path style=" stroke:none;fill-rule:evenodd;fill:rgb(7.45098%,8.235294%,9.411765%);fill-opacity:1;" d="M 65.007812 34.660156 L 64.867188 34.316406 L 64.867188 34.246094 L 64.59375 33.964844 L 64.3125 33.828125 L 64.242188 33.828125 L 64.03125 33.617188 L 63.960938 33.617188 L 63.6875 33.546875 L 63.265625 33.546875 L 62.992188 33.617188 L 62.917969 33.617188 L 62.640625 33.828125 L 62.570312 33.894531 L 62.367188 34.105469 L 62.292969 34.175781 L 62.15625 34.523438 L 61.25 34.523438 L 60.832031 34.382812 L 60.625 34.316406 L 60.417969 34.246094 L 60.207031 34.105469 L 59.925781 34.035156 L 59.648438 33.894531 L 59.371094 33.757812 L 59.160156 33.617188 L 58.117188 32.992188 L 57.839844 32.710938 L 57.492188 32.4375 L 57.074219 32.15625 L 56.65625 31.804688 L 56.238281 31.460938 L 55.820312 31.046875 L 55.683594 30.902344 L 54.847656 30.066406 L 53.871094 28.957031 L 53.386719 28.394531 L 52.96875 27.769531 L 52.621094 27.144531 L 52.203125 26.585938 L 51.226562 25.476562 L 50.25 24.359375 L 49.765625 23.875 L 49.277344 23.457031 L 48.722656 23.039062 L 48.234375 22.621094 L 47.121094 21.925781 L 46.5625 21.644531 L 46.425781 21.574219 L 46.078125 21.4375 L 45.515625 21.230469 L 44.964844 21.019531 L 44.40625 20.878906 L 43.851562 20.671875 L 43.292969 20.605469 L 42.734375 20.53125 L 41.761719 20.53125 L 41.277344 20.605469 L 40.785156 20.742188 L 40.160156 20.878906 L 39.671875 21.089844 L 39.257812 21.300781 L 38.765625 21.574219 L 38.351562 21.925781 L 37.933594 22.269531 L 37.796875 22.410156 L 36.542969 22.410156 L 36.542969 12.664062 L 37.167969 12.875 L 39.1875 13.710938 L 37.167969 9.746094 L 35.078125 5.640625 L 32.992188 9.675781 L 30.972656 13.710938 L 32.992188 12.875 L 33.617188 12.601562 L 33.617188 22.34375 L 32.226562 22.34375 L 32.085938 22.203125 L 31.25 21.507812 L 30.835938 21.230469 L 30.417969 21.019531 L 29.722656 20.878906 L 28.746094 20.605469 L 28.261719 20.53125 L 27.285156 20.53125 L 26.726562 20.605469 L 26.171875 20.671875 L 25.617188 20.8125 L 25.054688 20.949219 L 24.5 21.15625 L 23.941406 21.367188 L 23.527344 21.574219 L 23.316406 21.644531 L 22.761719 21.925781 L 22.269531 22.269531 L 21.714844 22.621094 L 21.15625 23.039062 L 20.671875 23.457031 L 20.183594 23.875 L 19.210938 24.847656 L 18.722656 25.40625 L 17.75 26.519531 L 17.261719 27.144531 L 16.425781 28.394531 L 15.9375 28.957031 L 14.964844 30.066406 L 14.058594 30.972656 L 13.644531 31.390625 L 13.226562 31.804688 L 12.804688 32.15625 L 12.457031 32.4375 L 12.039062 32.710938 L 11.695312 32.992188 L 11.34375 33.199219 L 11.066406 33.410156 L 10.714844 33.617188 L 10.164062 33.894531 L 9.886719 34.035156 L 9.675781 34.105469 L 9.394531 34.175781 L 8.976562 34.316406 L 8.769531 34.382812 L 8.558594 34.453125 L 7.65625 34.453125 L 7.515625 34.105469 L 7.585938 34.105469 L 7.378906 33.828125 L 7.308594 33.757812 L 6.960938 33.6875 L 6.890625 33.6875 L 6.609375 33.617188 L 6.195312 33.617188 L 5.914062 33.6875 L 5.84375 33.6875 L 5.570312 33.828125 L 5.496094 33.828125 L 5.21875 33.964844 L 5.21875 34.035156 L 5.011719 34.246094 L 5.011719 34.316406 L 4.871094 34.589844 L 4.871094 35.078125 L 4.945312 35.425781 L 4.945312 35.496094 L 5.082031 35.847656 L 5.496094 36.332031 L 5.570312 36.402344 L 64.242188 36.402344 L 64.3125 36.332031 L 64.730469 35.847656 L 64.867188 35.496094 L 64.867188 35.425781 L 64.9375 35.078125 L 64.9375 35.011719 Z M 32.226562 34.523438 L 13.570312 34.523438 L 13.644531 34.453125 L 13.921875 34.246094 L 14.128906 34.105469 L 14.195312 34.035156 L 14.753906 33.617188 L 15.035156 33.410156 L 15.589844 32.992188 L 15.871094 32.785156 L 16.144531 32.574219 L 16.425781 32.367188 L 16.980469 31.945312 L 17.261719 31.742188 L 17.820312 31.320312 L 18.027344 31.109375 L 18.234375 30.902344 L 18.445312 30.695312 L 18.863281 30.136719 L 19.070312 29.855469 L 19.488281 29.304688 L 19.695312 29.027344 L 20.183594 28.394531 L 20.671875 27.839844 L 21.644531 26.867188 L 22.621094 26.03125 L 23.105469 25.679688 L 23.527344 25.40625 L 23.59375 25.335938 L 24.011719 25.054688 L 24.429688 24.847656 L 24.847656 24.636719 L 25.265625 24.5 L 25.679688 24.359375 L 26.03125 24.222656 L 26.375 24.152344 L 26.726562 24.085938 L 27.074219 24.011719 L 27.980469 24.011719 L 28.261719 24.085938 L 28.535156 24.152344 L 28.746094 24.222656 L 29.027344 24.289062 L 29.230469 24.429688 L 29.441406 24.5 L 29.652344 24.636719 L 29.855469 24.78125 L 30 24.917969 L 30.277344 25.195312 L 30.554688 25.546875 L 30.625 25.617188 L 33.480469 25.617188 L 33.480469 27.980469 L 32.851562 28.394531 L 32.15625 28.816406 L 32.15625 34.523438 Z M 37.027344 34.523438 L 32.226562 34.523438 L 32.851562 34.175781 L 34.941406 32.992188 L 37.027344 34.246094 L 37.585938 34.589844 L 37.027344 34.589844 Z M 55.75 34.523438 L 37.726562 34.523438 L 37.726562 29.027344 L 37.097656 28.605469 L 36.542969 28.191406 L 36.542969 25.75 L 39.257812 25.75 L 39.324219 25.679688 L 39.601562 25.335938 L 39.746094 25.195312 L 40.019531 24.917969 L 40.230469 24.78125 L 40.441406 24.636719 L 40.648438 24.570312 L 40.855469 24.429688 L 41.136719 24.359375 L 41.34375 24.289062 L 41.902344 24.152344 L 42.804688 24.152344 L 43.152344 24.222656 L 43.851562 24.359375 L 44.195312 24.5 L 44.617188 24.636719 L 45.03125 24.78125 L 45.453125 24.984375 L 45.867188 25.195312 L 46.285156 25.476562 L 46.355469 25.546875 L 46.707031 25.824219 L 47.191406 26.171875 L 47.675781 26.585938 L 48.167969 27.003906 L 49.140625 27.980469 L 49.625 28.535156 L 50.113281 29.160156 L 50.53125 29.722656 L 50.8125 29.929688 L 51.015625 30.207031 L 51.226562 30.484375 L 51.851562 31.109375 L 52.410156 31.53125 L 52.6875 31.742188 L 52.96875 31.945312 L 53.523438 32.367188 L 54.082031 32.785156 L 54.359375 32.992188 L 54.917969 33.410156 L 55.195312 33.617188 L 55.472656 33.828125 L 55.75 34.035156 L 55.820312 34.105469 L 56.03125 34.246094 L 56.308594 34.453125 L 56.378906 34.523438 Z M 55.75 34.523438 "></path><path style=" stroke:none;fill-rule:evenodd;fill:rgb(100%,100%,100%);fill-opacity:1;" d="M 48.371094 44.125 C 47.957031 44.195312 47.675781 44.617188 47.605469 44.617188 L 46.285156 42.179688 C 46.214844 42.039062 46.285156 41.972656 46.632812 41.972656 L 60.347656 41.972656 L 61.320312 43.988281 C 61.320312 44.058594 61.320312 44.125 61.25 44.125 L 59.71875 44.125 L 59.71875 53.457031 L 59.371094 53.457031 L 56.726562 52.132812 C 56.65625 52.0625 56.515625 52.0625 56.515625 51.992188 C 56.378906 51.714844 57.28125 51.925781 57.28125 51.015625 L 57.28125 44.125 L 55.332031 44.125 L 55.332031 53.457031 L 54.988281 53.457031 L 52.339844 52.132812 C 52.273438 52.0625 52.132812 52.0625 52.132812 51.992188 C 51.992188 51.714844 52.898438 51.925781 52.898438 51.015625 L 52.898438 48.027344 L 50.320312 48.027344 C 50.53125 48.445312 50.738281 48.929688 50.53125 49.347656 C 49.90625 50.8125 47.121094 49.347656 46.5625 47.886719 C 45.796875 45.867188 47.605469 45.796875 49.070312 45.796875 L 52.828125 45.796875 L 52.828125 44.125 Z M 48.371094 44.125 "></path><path style=" stroke:none;fill-rule:evenodd;fill:rgb(100%,100%,100%);fill-opacity:1;" d="M 43.5 46.839844 L 41.136719 46.839844 C 40.996094 45.796875 40.296875 44.820312 39.601562 44.125 L 43.429688 44.125 Z M 38.492188 44.125 C 38.90625 44.617188 41.34375 47.605469 37.238281 47.605469 C 36.890625 47.605469 36.890625 47.535156 36.816406 47.257812 C 36.542969 46.144531 35.355469 45.660156 34.800781 46.496094 C 34.660156 46.707031 34.660156 47.050781 34.800781 47.332031 C 35.425781 49.207031 38.90625 52.410156 40.578125 53.941406 L 41.621094 53.523438 C 41.34375 53.457031 38.28125 50.882812 37.796875 49.976562 C 38.351562 50.042969 38.976562 50.042969 39.464844 49.90625 C 39.464844 49.90625 39.535156 49.90625 39.601562 49.835938 C 40.160156 49.625 40.507812 49.347656 40.925781 48.996094 C 41.484375 50.042969 41.136719 49.695312 42.039062 49.347656 C 42.597656 49.140625 43.152344 49.140625 43.570312 49.140625 L 43.570312 51.085938 C 43.570312 51.992188 42.667969 51.78125 42.804688 52.0625 C 42.875 52.132812 42.945312 52.203125 43.015625 52.203125 L 45.660156 53.523438 L 46.007812 53.523438 L 46.007812 44.195312 L 46.839844 44.195312 C 46.910156 44.195312 46.910156 44.125 46.910156 44.058594 L 45.9375 42.039062 L 45.101562 42.039062 C 44.6875 41.410156 44.058594 40.785156 43.570312 40.230469 C 41.484375 38.003906 41.410156 37.933594 38.28125 38.351562 C 37.65625 38.421875 37.304688 38.140625 36.890625 38.070312 C 36.679688 38.070312 36.472656 38.210938 36.609375 38.351562 L 38.421875 40.230469 C 38.90625 40.648438 39.1875 40.578125 39.882812 40.441406 C 40.925781 40.230469 42.109375 40.296875 42.945312 40.925781 C 43.226562 41.136719 43.988281 41.832031 43.988281 42.109375 L 34.800781 42.109375 C 34.453125 42.109375 34.382812 42.179688 34.453125 42.316406 L 35.777344 44.757812 C 35.847656 44.757812 36.121094 44.335938 36.542969 44.265625 Z M 38.492188 44.125 "></path><path style=" stroke:none;fill-rule:evenodd;fill:rgb(100%,100%,100%);fill-opacity:1;" d="M 11.414062 40.714844 C 14.894531 41.410156 20.949219 37.65625 23.316406 41.972656 L 12.179688 41.972656 Z M 24.984375 44.125 L 25.960938 44.125 C 26.03125 44.125 26.03125 44.125 26.03125 43.988281 L 25.054688 42.039062 L 24.636719 42.039062 C 23.664062 41.410156 22.480469 39.535156 21.230469 38.699219 C 20.878906 38.492188 20.460938 38.28125 20.117188 38.140625 C 19.90625 38.070312 19.488281 37.933594 19.28125 37.863281 C 17.261719 37.585938 16.078125 37.863281 14.058594 38.351562 C 12.945312 38.628906 11.761719 38.699219 10.582031 38.628906 C 10.441406 38.628906 10.164062 38.628906 10.019531 38.558594 C 9.535156 38.421875 9.675781 38.421875 9.1875 38.558594 L 11.066406 41.972656 L 8.910156 41.972656 C 8.558594 41.972656 8.492188 42.039062 8.558594 42.179688 L 9.886719 44.617188 C 9.953125 44.617188 10.164062 44.335938 10.582031 44.265625 C 10.714844 44.265625 10.859375 44.195312 11.066406 44.195312 L 11.066406 51.085938 C 11.066406 51.925781 10.164062 51.78125 10.300781 52.0625 C 10.371094 52.132812 10.441406 52.203125 10.511719 52.203125 L 13.085938 53.457031 L 13.433594 53.457031 L 13.433594 44.125 L 16.078125 44.125 L 16.078125 45.03125 C 15.660156 45.03125 14.753906 45.242188 14.269531 45.453125 C 14.128906 45.515625 14.195312 45.660156 14.269531 45.726562 L 15.3125 47.46875 C 15.382812 47.535156 15.382812 47.535156 15.449219 47.535156 C 15.660156 47.402344 15.871094 47.257812 16.144531 47.191406 C 18.515625 46.285156 22.269531 47.957031 19.351562 49.417969 L 19.210938 49.417969 C 18.585938 49.695312 17.675781 49.835938 16.980469 49.625 C 16.636719 49.558594 16.496094 49.558594 16.425781 49.277344 C 14.617188 46.214844 11.34375 49.488281 17.402344 51.851562 C 17.886719 52.0625 19.488281 54.152344 19.835938 54.292969 L 20.949219 53.730469 C 20.394531 53.59375 19.070312 52.621094 18.65625 51.851562 C 19.765625 51.78125 22.832031 51.296875 21.507812 48.582031 C 20.8125 47.191406 20.046875 45.515625 18.375 45.03125 L 18.375 44.125 L 22.621094 44.125 L 22.621094 51.015625 C 22.621094 51.925781 21.714844 51.714844 21.855469 51.992188 C 21.925781 52.0625 21.996094 52.132812 22.066406 52.132812 L 24.710938 53.457031 L 25.054688 53.457031 Z M 24.984375 44.125 "></path><path style=" stroke:none;fill-rule:evenodd;fill:rgb(100%,100%,100%);fill-opacity:1;" d="M 27.003906 48.445312 C 26.242188 47.535156 29.789062 46.632812 31.320312 47.257812 C 31.390625 47.257812 31.460938 47.332031 31.460938 47.402344 L 31.460938 47.816406 C 31.390625 48.167969 31.109375 48.582031 30.902344 48.722656 C 29.929688 49.347656 27.910156 49.277344 27.003906 48.445312 Z M 33.894531 44.125 L 34.730469 44.125 C 34.800781 44.125 34.800781 44.058594 34.800781 43.988281 L 33.828125 41.972656 L 25.75 41.972656 C 25.40625 41.972656 25.335938 42.039062 25.40625 42.179688 L 26.726562 44.617188 C 26.796875 44.617188 27.074219 44.195312 27.492188 44.125 L 31.53125 44.125 L 31.53125 46.144531 L 30.835938 45.101562 C 30.136719 44.546875 25.617188 44.890625 25.40625 46.496094 C 25.335938 46.839844 25.40625 47.191406 25.546875 47.535156 C 26.65625 49.976562 28.746094 52.0625 31.53125 50.945312 L 31.53125 51.015625 C 31.53125 51.925781 30.625 51.714844 30.765625 51.992188 C 30.835938 52.0625 30.902344 52.132812 30.972656 52.132812 L 33.617188 53.457031 L 33.964844 53.457031 Z M 33.894531 44.125 "></path></g></svg> 